<?xml version="1.0" encoding="UTF-8"?>
<svg width="105px" height="92px" viewBox="0 0 105 92" version="1.1" xmlns="http://www.w3.org/2000/svg" xmlns:xlink="http://www.w3.org/1999/xlink">
    <!-- Generator: Sketch 55 (78076) - https://sketchapp.com -->
    <title>logoASP</title>
    <desc>Created with Sketch.</desc>
    <g id="Page-1" stroke="none" stroke-width="1" fill="none" fill-rule="evenodd">
        <g id="Elements" transform="translate(-332.000000, -706.000000)" fill-rule="nonzero">
            <g id="logoASP" transform="translate(332.000000, 706.000000)">
                <path d="M89.947432,59 C89.860423,59 89.770997,58.9950914 89.6839879,58.9877285 C88.0888218,58.84047 86.9117825,57.4096084 87.0567976,55.789765 C87.1510574,54.7196867 87.1993958,53.6520627 87.1993958,52.618799 C87.1993958,33.4702872 71.8567976,17.8903394 53,17.8903394 C34.1432024,17.8903394 18.8006042,33.4702872 18.8006042,52.618799 C18.8006042,53.654517 18.8489426,54.722141 18.9432024,55.789765 C19.0882175,57.4096084 17.9111782,58.84047 16.3160121,58.9877285 C14.7208459,59.1349869 13.3117825,57.9397389 13.1667674,56.3198956 C13.0555891,55.0755614 13,53.8312272 13,52.618799 C13,30.2207833 30.9432024,12 53,12 C75.0567976,12 93,30.2207833 93,52.618799 C93,53.8287728 92.9444109,55.0755614 92.8332326,56.3198956 C92.6954683,57.8513838 91.4314199,59 89.947432,59 Z" id="Path" fill="#F1673D"></path>
                <path d="M100.495476,59.9984035 C100.393155,59.9984035 100.288399,59.9959793 100.183643,59.9887067 C97.7669374,59.8190143 95.9470998,57.7342213 96.1151972,55.331861 C96.1882831,54.2846161 96.2272622,53.247068 96.2272622,52.2434583 C96.2272622,28.2489453 76.6110209,8.72946468 52.4975638,8.72946468 C28.3841067,8.72946468 8.76786543,28.2489453 8.76786543,52.2434583 C8.76786543,53.247068 8.80440835,54.2846161 8.87993039,55.331861 C9.04802784,57.7366455 7.22819026,59.8214385 4.81148492,59.9887067 C2.39965197,60.1608234 0.299651972,58.3451141 0.131554524,55.9403296 C0.0438515081,54.691878 0,53.4458505 0,52.2410341 C0,38.287466 5.46194896,25.1678151 15.3772622,15.301411 C25.2925754,5.43500689 38.4772622,0 52.5,0 C66.5227378,0 79.7074246,5.43500689 89.6227378,15.301411 C99.538051,25.1678151 105,38.287466 105,52.2410341 C105,53.4458505 104.956148,54.691878 104.868445,55.9403296 C104.70522,58.2408745 102.77819,59.9984035 100.495476,59.9984035 Z" id="Path" fill="#FF5924"></path>
                <path d="M23.5977519,58 C22.3962016,58 21.358062,57.0931965 21.213876,55.8623619 C21.072093,54.6411999 21,53.4079472 21,52.1940396 C21,34.9937913 34.9067442,21 52,21 C69.0932558,21 83,34.9937913 83,52.1940396 C83,53.4055291 82.927907,54.6387818 82.786124,55.8599438 C82.6323256,57.1875041 81.4379845,58.1378341 80.1186822,57.9806549 C78.7993798,57.8258937 77.8573643,56.6240769 78.0111628,55.2965166 C78.1313178,54.2615515 78.1937984,53.2169139 78.1937984,52.1916215 C78.1937984,37.6585844 66.4426357,25.8338671 52,25.8338671 C37.5573643,25.8338671 25.8062016,37.6585844 25.8062016,52.1916215 C25.8062016,53.2169139 25.8662791,54.2615515 25.9888372,55.2940984 C26.1426357,56.6216587 25.2006202,57.8210574 23.8813178,57.9782367 C23.7851938,57.9951637 23.6914729,58 23.5977519,58 Z" id="Path" fill="#FF5924"></path>
                <path d="M89.947432,59 C89.860423,59 89.770997,58.9950914 89.6839879,58.9877285 C88.0888218,58.84047 86.9117825,57.4096084 87.0567976,55.789765 C87.1510574,54.7196867 87.1993958,53.6520627 87.1993958,52.618799 C87.1993958,33.4702872 71.8567976,17.8903394 53,17.8903394 C34.1432024,17.8903394 18.8006042,33.4702872 18.8006042,52.618799 C18.8006042,53.654517 18.8489426,54.722141 18.9432024,55.789765 C19.0882175,57.4096084 17.9111782,58.84047 16.3160121,58.9877285 C14.7208459,59.1349869 13.3117825,57.9397389 13.1667674,56.3198956 C13.0555891,55.0755614 13,53.8312272 13,52.618799 C13,30.2207833 30.9432024,12 53,12 C75.0567976,12 93,30.2207833 93,52.618799 C93,53.8287728 92.9444109,55.0755614 92.8332326,56.3198956 C92.6954683,57.8513838 91.4314199,59 89.947432,59 Z" id="Path" fill="#FF5924"></path>
                <path d="M96.0772931,62.0557879 L102.885626,63.4593643 C104.328832,63.7564175 105.251784,65.1599939 104.939131,66.5858493 L100.059242,88.9267258 C99.7515916,90.3377285 98.350906,91.2387899 96.9227069,90.9442121 L90.1143743,89.5406357 C88.6711679,89.2435825 87.7482161,87.8400061 88.0608691,86.4141507 L92.9407578,64.0732742 C93.2484084,62.6622715 94.649094,61.7612101 96.0772931,62.0557879 Z" id="Path" fill="#32509C"></path>
                <path d="M91,63.8069713 L86.4063149,85.2112564 L82.2961757,83.4890725 C82.2961757,83.4890725 80.1202196,82.5049674 76.735399,83.981125 C73.3505785,85.4572826 59.0859775,91.361913 59.0859775,91.361913 C59.0859775,91.361913 54.0087466,93.0840968 46.2720139,90.8698604 C38.5352812,88.6556241 28.8643653,84.4731776 28.8643653,84.4731776 C28.8643653,84.4731776 43.612512,83.2430462 46.9973326,82.0129149 C49.6423281,81.0509522 29.9789383,82.6452024 21.2678608,83.3882017 C19.0653097,83.5751817 17.1456329,81.8849813 17.0078224,79.6412217 L17.0078224,79.6412217 C16.877265,77.5204753 18.3955988,75.662977 20.4675925,75.40957 L46.7555597,72.1743246 C46.7555597,72.1743246 50.865699,71.9282983 56.1847027,68.2379043 C61.5037065,64.5475104 67.0644831,60.8571164 77.9442635,62.333274 C88.8240439,63.8094316 91,63.8069713 91,63.8069713 Z" id="Path" fill="#32509C"></path>
                <path d="M19.5319789,73.992048 L25,73.351048 L6.71277959,64.4102847 C4.77077389,63.460655 2.40456744,64.2156106 1.42375648,66.0958773 C0.442945512,67.9761441 1.22269023,70.2671257 3.16469593,71.2167553 L14.9981802,77 C15.8833621,75.3974999 17.5384806,74.2270814 19.5319789,73.992048 Z" id="Path" fill="#32509C"></path>
                <path d="M38.1574953,71 L42,70.5316312 L26.0370019,62.4116453 C24.6850095,61.7234299 23.1242884,61.9289386 22,62.7987664 L38.1574953,71 Z" id="Path" fill="#32509C"></path>
                <path d="M16.1129588,62.42443 C14.2707362,61.4831747 12.0415737,62.16078 11,63.9299457 L28.7432569,73 L34.9172582,72.2435461 L35,72.0784569 L16.1129588,62.42443 Z" id="Path" fill="#32509C"></path>
            </g>
        </g>
    </g>
</svg>