<?xml version="1.0" encoding="UTF-8" standalone="no"?>
<!-- Created with Inkscape (http://www.inkscape.org/) -->

<svg
   xmlns:dc="http://purl.org/dc/elements/1.1/"
   xmlns:cc="http://creativecommons.org/ns#"
   xmlns:rdf="http://www.w3.org/1999/02/22-rdf-syntax-ns#"
   xmlns:svg="http://www.w3.org/2000/svg"
   xmlns="http://www.w3.org/2000/svg"
   xmlns:sodipodi="http://sodipodi.sourceforge.net/DTD/sodipodi-0.dtd"
   xmlns:inkscape="http://www.inkscape.org/namespaces/inkscape"
   id="svg2"
   version="1.1"
   inkscape:version="0.48.3.1 r9886"
   width="1134"
   height="1220"
   sodipodi:docname="AZ_Logo.png">
  <metadata
     id="metadata8">
    <rdf:RDF>
      <cc:Work
         rdf:about="">
        <dc:format>image/svg+xml</dc:format>
        <dc:type
           rdf:resource="http://purl.org/dc/dcmitype/StillImage" />
        <dc:title></dc:title>
      </cc:Work>
    </rdf:RDF>
  </metadata>
  <defs
     id="defs6" />
  <sodipodi:namedview
     pagecolor="#ffffff"
     bordercolor="#666666"
     borderopacity="1"
     objecttolerance="10"
     gridtolerance="10"
     guidetolerance="10"
     inkscape:pageopacity="0"
     inkscape:pageshadow="2"
     inkscape:window-width="1280"
     inkscape:window-height="968"
     id="namedview4"
     showgrid="false"
     inkscape:zoom="0.54713836"
     inkscape:cx="508.62179"
     inkscape:cy="651.45408"
     inkscape:window-x="-4"
     inkscape:window-y="-4"
     inkscape:window-maximized="1"
     inkscape:current-layer="svg2" />
  <path
     style="fill:#467452"
     d="m 498.46536,1211.0964 c -0.26268,-0.6916 -0.36234,-123.8824 -0.22148,-273.75741 l 0.25612,-272.5 3.5,0.0541 c 1.925,0.0298 9.35,0.70376 16.5,1.49778 19.14011,2.12553 67.52185,1.86757 87,-0.46386 8.25,-0.98748 16.125,-1.86126 17.5,-1.94172 l 2.5,-0.1463 0,274 0,273.99991 -63.27852,0.2575 c -50.09283,0.2038 -63.37804,0 -63.75612,-1 z M 650.6744,1087.6801 C 650.30348,1087.3091 650,990.77101 650,873.15088 l 0,-213.85477 2.25,-0.93563 c 1.2375,-0.5146 7.46057,-2.29045 13.82904,-3.94634 37.59756,-9.77589 75.04604,-28.80866 96.10214,-48.84285 3.5524,-3.37999 6.36271,-5.27421 7.5,-5.05518 1.75249,0.3375 1.81882,9.23023 1.81882,243.83658 l 0,243.48631 -60.0756,0.2577 c -33.04157,0.1418 -60.37907,-0.046 -60.75,-0.4166 z m -302.20906,-1.5833 c -1.0011,-2.6352 0.027,-486.08893 1.0347,-486.39358 0.55,-0.16634 4.825,3.11002 9.5,7.28079 22.80177,20.3425 57.50766,37.54253 97.48986,48.31543 l 14.0101,3.77492 0,213.88231 0,213.88233 -60.77841,0.2578 c -48.09245,0.2039 -60.87815,0 -61.25625,-1 z M 161.25004,914.87361 c -3.9875,-4.64936 -7.25,-8.86326 -7.25,-9.36421 0,-0.50095 4.206,-8.95673 9.3467,-18.79062 5.1407,-9.83388 17.5991,-33.82879 27.6854,-53.32201 l 18.3386,-35.44222 5.9181,6.44222 c 3.255,3.54322 6.7538,7.76961 7.7752,9.39197 l 1.8571,2.94976 -5.9605,11.17438 c -3.2784,6.14591 -5.9606,11.66153 -5.9606,12.25693 0,1.07033 25.871,31.62891 28.6034,33.78604 1.085,0.85663 4.0337,0.10781 12.6556,-3.2139 6.1825,-2.38191 11.9974,-4.34699 12.922,-4.36685 1.7017,-0.0366 14.819,14.16759 14.819,16.04687 0,0.56049 -1.4755,1.63556 -3.2789,2.38905 -7.3581,3.07443 -107.9913,38.53104 -109.3333,38.52198 -0.4883,-0.003 -4.1503,-3.81002 -8.1378,-8.45939 z m 41.7853,-24.72993 c 15.4882,-5.84921 18.9976,-7.52305 18.7586,-8.94715 -0.4361,-2.59913 -17.0672,-21.79049 -18.6817,-21.55767 -1.2174,0.17557 -21.1122,34.99082 -21.1122,36.94577 0,1.37275 1.8253,0.81384 21.0353,-6.44095 z m 717.9176,16.99056 c -23.89912,-8.24242 -49.05063,-16.88633 -55.89225,-19.20867 -6.84162,-2.32235 -12.61484,-4.74902 -12.82936,-5.3926 -0.44546,-1.33636 12.42448,-16.52805 14.41256,-17.0126 0.71899,-0.17524 6.30324,1.51226 12.40943,3.75 6.10619,2.23774 11.85468,4.0386 12.77442,4.00191 1.47281,-0.0588 29.11765,-31.26947 29.97497,-33.84141 0.1835,-0.55051 -2.39704,-5.90088 -5.73454,-11.88971 C 912.73068,821.55234 910,816.07306 910,815.365 c 0,-1.64488 12.98606,-16.52601 14.42146,-16.52601 0.59299,0 9.87567,16.65 20.62817,37 10.7525,20.35 23.12758,43.75 27.50018,52 4.37261,8.25 8.07919,15.47687 8.23687,16.0597 0.33115,1.22412 -12.9918,16.9213 -15.0237,17.70101 -0.74641,0.28642 -20.91093,-6.22303 -44.81004,-14.46546 z m 22.39942,-30.67181 c -6.05237,-11.10165 -10.44106,-18.0818 -11.37871,-18.09765 -1.90482,-0.0322 -18.47365,19.42964 -18.47365,21.69924 0,1.24132 4.81457,3.47184 19,8.8024 10.45,3.92687 19.38356,6.80859 19.85236,6.40381 0.46879,-0.40477 -3.58121,-8.86829 -9,-18.8078 z M 1018.75,839.7888 c -3.7125,-1.91256 -6.75,-3.92761 -6.75,-4.47788 0,-0.55027 2.925,-6.83764 6.5,-13.97193 3.575,-7.13429 6.5,-13.6518 6.5,-14.48334 0,-0.9912 -14.1203,-8.5737 -41,-22.01666 -24.74506,-12.3754 -41,-21.06044 -41,-21.90634 0,-2.1623 8.12651,-18.59366 9.19592,-18.59366 0.52063,0 19.22198,9.225 41.55856,20.5 22.33662,11.275 41.10582,20.5 41.70942,20.5 0.6037,0 4.0087,-5.91553 7.5668,-13.14563 3.5581,-7.2301 7.0508,-13.742 7.7616,-14.47088 1.0695,-1.09679 2.578,-0.68909 8.75,2.36492 4.1017,2.02959 7.4577,4.22832 7.4577,4.88607 0,2.32852 -38.867,77.86882 -40.1733,78.07912 -0.7297,0.11748 -4.3642,-1.35122 -8.0767,-3.26379 z m -916.42446,-4.25588 c -1.9336,-1.20771 -34.277103,-65.6559 -33.534703,-66.82195 0.8684,-1.36418 12.6573,-7.37668 14.4306,-7.35984 0.7032,0.007 6.5974,10.35668 13.0981,23 6.500803,12.64332 12.414703,22.98786 13.142103,22.98786 0.7273,0 19.4027,-9.26098 41.5009,-20.57995 22.0981,-11.31897 40.7092,-20.37448 41.3579,-20.12335 1.7539,0.67892 9.9455,16.56795 9.3464,18.12906 -0.2838,0.73974 -18.8875,10.68357 -41.3415,22.09738 -22.4539,11.41381 -44.4396,22.69016 -48.857,25.05856 -4.4175,2.36839 -8.5317,3.99389 -9.1428,3.61223 z M 1068.5134,730.52861 c -3.668,-1.03734 -6.103,-2.29689 -6.2869,-3.25201 -0.1651,-0.85741 1.22,-7.92053 3.0781,-15.69584 1.858,-7.7753 3.1121,-14.5513 2.7868,-15.05778 -0.3253,-0.50648 -11.3179,-3.46847 -24.428,-6.5822 -13.1101,-3.11373 -33.2476,-7.93612 -44.74997,-10.71643 -23.54508,-5.69121 -22.03706,-4.55227 -19.51784,-14.74102 0.76758,-3.10438 1.67615,-6.88184 2.01905,-8.39434 0.46507,-2.05134 1.22576,-2.75 2.99416,-2.75 1.30388,0 15.3578,3.17662 31.2309,7.05916 51.0887,12.4962 57.7091,13.99333 58.4164,13.21024 0.3822,-0.42317 2.2131,-7.02431 4.0687,-14.6692 1.8556,-7.64489 3.8661,-14.57313 4.4679,-15.39609 0.9672,-1.32268 1.9535,-1.29047 8.5007,0.27756 4.0736,0.97563 7.7566,2.08886 8.1844,2.47385 0.5929,0.53364 -12.518,57.20001 -18.9827,82.04448 -1.1075,4.25628 -3.1391,4.63387 -11.7817,2.18962 z M 54.082237,727.58899 c -4.7105,-17.75509 -18.0822,-73.09908 -18.0822,-74.83982 0,-1.93617 0.9354,-2.41754 7.5639,-3.89224 4.1602,-0.92555 8.0989,-1.47757 8.7526,-1.2267 0.6538,0.25086 4.2747,13.00046 8.0464,28.33244 3.7718,15.33197 7.251,28.29666 7.7315,28.81041 1.0099,1.07961 20.1493,-3.16059 22.7064,-5.03043 1.4948,-1.09298 1.3028,-2.57435 -2.209,-17.05032 -7.7282,-31.85675 -8.9369,-37.34157 -8.3568,-37.9217 1.2082,-1.20824 16.0734,-4.52073 16.7886,-3.74111 0.4084,0.44521 3.540903,12.37983 6.961103,26.52138 3.4202,14.14156 6.7353,26.12322 7.3669,26.62592 1.2265,0.97623 27.3728,-5.16225 29.0248,-6.8143 0.5544,-0.55434 -1.9365,-12.40893 -6.3114,-30.03713 -3.975,-16.01675 -6.9974,-29.72014 -6.7166,-30.45198 0.6741,-1.75661 15.3476,-5.23835 16.6381,-3.94789 1.0178,1.01777 20.0135,77.32892 20.0135,80.3998 0,1.5556 -7.4036,3.6302 -53.25,14.9215 -29.287503,7.21307 -53.795203,13.10962 -54.461503,13.10343 -0.6663,-0.006 -1.6591,-1.69876 -2.2063,-3.76126 z M 538.42878,612.29047 c -56.07886,-11.78623 -93.11022,-65.08703 -84.03962,-120.96177 6.84528,-42.1668 37.42618,-75.94127 78.49196,-86.68885 17.76387,-4.6491 42.6773,-4.10393 58.79735,1.28662 23.59854,7.89137 43.51039,22.86396 56.6314,42.58362 14.00059,21.04159 19.63332,43.46243 17.47734,69.56779 -3.87475,46.91673 -40.51551,86.53542 -87.6682,94.79334 -11.51777,2.01712 -28.51274,1.76845 -39.69023,-0.58075 z m 479.78912,-8.08837 c -8.3496,-3.20387 -17.1755,-9.73439 -21.25379,-15.72614 C 990.7327,579.32079 989.5,574.59138 989.5,559.83899 c 0,-11.44602 0.29003,-13.71722 2.42627,-19 8.62073,-21.31865 27.56843,-32.5 55.07373,-32.5 18.8925,0 33.2448,5.08134 43.6207,15.44359 10.1408,10.12742 14.3793,21.05039 14.3793,37.05641 0,14.57088 -3.4507,24.45869 -11.7362,33.62982 -4.1728,4.61873 -17.7757,11.75825 -19.3684,10.16553 -0.7485,-0.74846 -5.6561,-17.47808 -5.8754,-20.0285 -0.011,-0.12824 2.1714,-1.34362 4.8497,-2.70084 8.9561,-4.53836 13.3766,-11.96666 13.4291,-22.56601 0.039,-7.88426 -1.7361,-12.34937 -7.3159,-18.40268 -6.0451,-6.55824 -12.4733,-8.76702 -27.2624,-9.36758 -23.082,-0.93733 -35.5159,3.95665 -41.3372,16.27026 -2.9944,6.33398 -3.214,16.0745 -0.4972,22.05581 2.3545,5.18354 8.7586,10.66295 15.4062,13.1816 3.474,1.31623 5.2957,2.60386 5.472,3.86784 0.3482,2.49641 -4.9777,18.65995 -6.2643,19.01147 -0.55,0.15026 -3.3769,-0.63886 -6.2821,-1.75361 z M 66.796937,600.41069 c -22.8721,-0.38082 -35.073,-0.94773 -35.7882,-1.66291 -0.6759,-0.67598 -0.9764,-4.82234 -0.7969,-10.99695 l 0.2882,-9.91184 22,0 22,0 0,-22.5 0,-22.5 -20.7706,-0.57059 c -11.9464,-0.32818 -21.2029,-1.0029 -21.7882,-1.58817 -0.5947,-0.59474 -0.8978,-5.13615 -0.7294,-10.9294 l 0.2882,-9.91184 35.412,0.40172 c 19.4766,0.22094 44.676603,0.67094 56.000003,1 l 20.588,0.59828 0,10.5 0,10.5 -24.5,0.0711 -24.500003,0.0711 -0.8177,21.81126 c -0.5605,14.95266 -0.4873,22.14152 0.2327,22.86156 0.6408,0.64078 10.317503,1.27152 24.817703,1.61763 l 23.7673,0.56735 0,10.5 0,10.5 -20.5,0.0747 c -11.275,0.0411 -36.116403,-0.18526 -55.203103,-0.50305 z M 121.50004,479.18572 c -12.65,-3.81282 -35.776303,-10.71186 -51.391703,-15.33121 -15.6154,-4.61934 -28.8417,-8.84892 -29.3919,-9.39907 -1.0834,-1.08343 2.7759,-16.03993 4.8822,-18.92043 1.0375,-1.41887 5.8944,-0.20444 44.5329,11.13506 23.852703,7.00019 43.940603,12.71441 44.639903,12.69827 0.6993,-0.0161 1.7183,-1.04185 2.2645,-2.27935 2.382,-5.39699 11.8076,-39.30645 11.1176,-39.99646 -0.8285,-0.82847 -10.7492,-3.85541 -56.653503,-17.28567 -16.5,-4.82742 -30.5902,-9.31382 -31.3116,-9.96977 -1.0746,-0.97716 -0.8104,-2.86676 1.462,-10.45812 1.5255,-5.096 3.2746,-9.45771 3.8869,-9.69269 0.6124,-0.23498 20.8526,5.43012 44.978303,12.58911 24.1257,7.15898 44.1168,12.76967 44.4247,12.46819 0.3078,-0.30147 1.0495,-1.97833 1.6482,-3.72636 0.5987,-1.74803 1.7662,-3.31026 2.5946,-3.47162 1.5238,-0.29687 38.627,10.27017 39.6489,11.29208 0.6216,0.6216 -3.5715,15.59145 -4.6885,16.73845 -0.3948,0.40542 -5.2767,-0.66939 -10.8486,-2.38847 -5.572,-1.71909 -10.7775,-2.87746 -11.5679,-2.57416 -1.5869,0.60895 -2.846,4.46135 -14.7808,45.22549 -4.5088,15.4 -8.6463,28.5625 -9.1945,29.25 -0.5481,0.6875 -1.504,1.2003 -2.1242,1.13956 -0.6201,-0.0607 -11.4775,-3.23001 -24.1275,-7.04283 z m 884.41176,0.70874 c -20.41289,-5.63109 -34.48731,-23.7613 -38.01353,-48.96783 -2.21045,-15.801 2.65825,-30.26931 14.02873,-41.68921 13.99549,-14.05632 41.8397,-22.57767 60.69,-18.57334 19.2293,4.08485 31.7526,15.73964 38.4894,35.82029 9.4756,28.24398 0.2399,52.62293 -24.8826,65.68125 -15.4696,8.04092 -37.1227,11.36723 -50.312,7.72884 z m 28.092,-23.62373 c 14.1487,-3.92081 24.3109,-10.83573 28.8848,-19.65483 2.3165,-4.46663 3.2039,-12.51315 2.0148,-18.27054 -4.3542,-21.08229 -20.8698,-29.99111 -44.4934,-24.00053 -16.3603,4.1487 -28.14894,12.91009 -31.8039,23.6368 -4.89214,14.35765 2.3458,31.6621 15.8939,37.99911 6.6691,3.11941 18.861,3.23925 29.5038,0.28999 z M 135.73114,346.97082 c -25.6966,-16.0225 -46.723403,-29.74562 -46.726103,-30.49581 -0.01,-1.92043 8.9871,-16.13602 10.2092,-16.13602 0.554,0 14.727403,8.58003 31.496403,19.06673 16.7691,10.48669 30.7662,18.78976 31.1047,18.45126 0.3385,-0.3385 -8.1076,-18.07988 -18.769,-39.42528 l -19.3845,-38.80981 5.4191,-8.69295 c 4.4537,-7.14436 5.7992,-8.62337 7.5529,-8.30234 3.4401,0.62975 93.2912,57.07256 93.3305,58.62846 0.051,2.01691 -8.8834,16.08393 -10.2152,16.08393 -0.6098,0 -14.543,-8.38492 -30.9625,-18.63316 -16.4195,-10.24823 -30.1567,-18.33007 -30.5272,-17.95964 -0.3704,0.37043 7.8138,17.70077 18.1871,38.51186 12.9628,26.00616 18.6461,38.3971 18.1749,39.62519 -1.3026,3.39443 -9.7221,16.2804 -10.9437,16.74917 -0.674,0.25863 -22.25,-12.63908 -47.9466,-28.66159 z m 796.91214,0.11817 c -0.77155,-1.2375 -3.05993,-4.89 -5.08527,-8.11668 -2.02534,-3.22667 -3.47392,-6.41008 -3.21905,-7.07425 0.25486,-0.66417 3.09536,-2.79144 6.31222,-4.72726 27.4029,-16.49043 69.21056,-42.41626 70.73052,-43.86151 1.8325,-1.74248 1.6692,-2.13782 -6.25002,-15.13415 C 990.65926,260.83543 987,254.37986 987,253.82942 c 0,-1.31268 13.9045,-9.66748 14.9814,-9.00189 0.9533,0.58914 44.5892,71.22892 45.5557,73.74755 0.4851,1.26425 -1.0777,2.76455 -6.5013,6.24096 -3.927,2.51713 -7.5571,4.31879 -8.067,4.00369 -0.5098,-0.31511 -4.4099,-6.22909 -8.6667,-13.1422 -4.2569,-6.9131 -8.3049,-12.78612 -8.9956,-13.05116 -0.6906,-0.26503 -2.7297,0.41078 -4.5311,1.5018 -1.8015,1.09102 -19.12724,11.70978 -38.50172,23.59725 -19.37447,11.88746 -35.9016,21.61357 -36.72694,21.61357 -0.82535,0 -2.13191,-1.0125 -2.90346,-2.25 z M 867.25,263.7295 C 851.1625,248.01588 838,234.41006 838,233.49433 c 0,-2.01431 77.31885,-79.56045 78.79751,-79.02916 2.53391,0.91046 57.20249,55.99179 57.20249,57.63437 0,1.85786 -9.78882,12.23945 -11.54059,12.23945 -0.53774,0 -10.19447,-9.225 -21.45941,-20.5 -11.26494,-11.27501 -21.17138,-20.50001 -22.01431,-20.50001 -1.70417,0 -16.98569,14.93333 -16.98569,16.59867 0,0.57992 8.55,9.55915 19,19.95383 10.45,10.39469 19,19.60062 19,20.45763 0,1.7577 -9.96049,11.98988 -11.67152,11.98988 -0.60975,0 -9.75563,-8.4375 -20.32417,-18.75 -10.56854,-10.3125 -19.75532,-18.87861 -20.41507,-19.0358 C 886.20166,214.22259 867,233.93098 867,235.68578 c 0,0.64409 9.45,10.61303 21,22.15321 11.55,11.54018 21,21.58939 21,22.33158 0,2.07704 -9.03266,12.17096 -10.87147,12.14878 -0.89569,-0.0108 -14.79103,-12.87624 -30.87853,-28.58985 z m -629.25066,24.35949 c -3e-4,-0.1375 -1.4011,-7.675 -3.1129,-16.75 -3.1347,-16.6189 -4.2839,-34.29088 -2.6174,-40.25 0.9995,-3.57384 -0.4552,-3.58425 -7.4369,-0.0532 -7.68,3.88425 -17.1285,3.88532 -25.0347,0.003 -10.9244,-5.3646 -18.8091,-17.52982 -18.7877,-28.98715 0.015,-7.77033 3.5108,-14.21721 13.1724,-24.28929 11.6852,-12.18176 39.7062,-37.86554 41.6887,-38.2115 1.0796,-0.1884 14.4686,13.61854 38.6406,39.84694 20.3437,22.07439 37.1226,40.70692 37.2863,41.40564 0.3382,1.44257 -14.2696,14.90819 -15.5993,14.3797 -0.4761,-0.18919 -7.4971,-7.54398 -15.6024,-16.34398 -8.1052,-8.8 -15.2985,-16.12978 -15.9851,-16.2884 -1.6384,-0.37854 -11.3083,9.87993 -12.7085,13.48206 -1.3991,3.59919 -0.614,12.61552 3.1951,36.6969 l 2.988,18.89056 -8.7928,8.31061 c -7.225,6.82886 -11.2893,9.76486 -11.2934,8.15827 z m -9.8391,-77.9343 c 9.9469,-7.79453 22.8398,-20.08724 22.8398,-21.77671 0,-1.71488 -16.5115,-20.30783 -18.4909,-20.8219 -0.5991,-0.15559 -7.2602,5.69441 -14.8025,13 l -13.7132,13.28291 0,4.88197 c 0.01,8.82633 6.3736,15.60684 14.6635,15.61429 3.3697,0.003 5.1747,-0.79127 9.5,-4.18056 z M 816.5,218.12347 c -4.95,-2.84005 -9.25679,-5.53687 -9.57065,-5.99292 -0.31385,-0.45606 0.25671,-5.88323 1.26791,-12.06038 1.01121,-6.17715 1.718,-12.28918 1.57065,-13.58229 -0.21803,-1.91336 -3.80147,-4.38031 -19.24668,-13.25 -10.43832,-5.99439 -19.30693,-10.8989 -19.70802,-10.8989 -0.4011,0 -5.31152,3.88459 -10.91206,8.63242 -9.98903,8.46817 -10.23244,8.60404 -12.79197,7.14078 -16.64966,-9.51848 -17.22687,-9.92646 -16.05017,-11.3443 1.19619,-1.44132 89.37636,-72.404498 91.73024,-73.8201 0.79528,-0.478275 5.10566,1.385529 11.25,4.864482 9.41959,5.333418 9.95698,5.813318 9.8913,8.833278 -0.15161,6.97078 -16.49562,116.05944 -17.43055,116.34076 -0.55,0.1655 -5.05,-2.02277 -10,-4.86283 z m -2.48294,-54.53449 c 0.009,-0.4125 1.57257,-9.73931 3.47375,-20.72625 1.90118,-10.98694 3.08738,-20.34556 2.636,-20.79694 -0.89558,-0.89558 -32.97403,25.11717 -33.0687,26.81577 -0.0611,1.09555 23.53368,15.20684 25.69189,15.36552 0.6875,0.0505 1.25768,-0.2456 1.26706,-0.6581 z m -448.32042,9 c -6.4164,-16.42365 -24.7679,-63.20052 -30.8399,-78.608979 -4.2413,-10.762881 -4.8464,-13.070381 -3.712,-14.155857 0.7454,-0.713281 12.3803,-5.58783 25.8553,-10.832331 13.475,-5.244502 31.24911,-12.204898 39.49808,-15.467547 8.24896,-3.26265 15.44896,-5.757281 16,-5.543626 0.55103,0.213656 3.5683,7.019187 6.70503,15.123404 3.13673,8.104216 12.17964,31.245985 20.09535,51.426146 7.91571,20.18017 14.12429,37.08462 13.79685,37.56544 -0.96898,1.42288 -16.81736,7.44485 -18.63101,7.07931 -1.13662,-0.22909 -3.97327,-6.2211 -8.91706,-18.83596 -3.98761,-10.175 -11.46435,-29.23897 -16.61499,-42.364366 -5.15064,-13.125403 -9.92458,-24.079178 -10.60876,-24.341723 -0.68418,-0.262545 -10.03687,2.978859 -20.78379,7.203119 -15.6129,6.136957 -19.5397,8.053618 -19.5397,9.537225 0,1.021213 4.2835,12.727515 9.519,26.014005 18.59881,47.19991 22.62724,57.95267 22.30607,59.53982 -0.29745,1.46994 -15.46117,8.41192 -18.37467,8.41192 -0.6399,0 -3.2291,-5.2875 -5.7538,-11.75 z m 319.37205,-15.28166 c -18.86151,-3.94125 -32.46017,-11.88717 -37.55691,-21.94509 -2.55437,-5.0408 -4.96196,-15.99698 -3.76433,-17.13027 0.4139,-0.39167 5.2119,-0.86532 10.66222,-1.05255 l 9.90967,-0.34043 1.18238,5.18446 c 0.6503,2.85145 1.92511,6.31803 2.83291,7.7035 3.70342,5.65214 17.93976,10.72115 25.91067,9.2258 6.81815,-1.27909 12.75848,-8.18058 12.75096,-14.8141 -0.008,-6.88478 -7.69129,-14.5115 -17.03103,-16.90521 -6.01286,-1.54104 -6.12133,-1.90611 -3.4221,-11.51708 l 1.43869,-5.122633 9.32416,0.122633 c 8.70812,0.114531 9.56173,-0.05792 12.91982,-2.610162 4.45404,-3.385199 7.29479,-10.178661 6.35379,-15.194631 -1.44555,-7.705481 -9.78369,-13.51112 -19.46156,-13.550612 -5.80653,-0.0237 -9.93592,1.883197 -13.8659,6.403077 l -2.22092,2.554275 -6.7656,-3.632848 C 664.22084,59.29183 663,58.436596 663,56.793587 c 0,-2.645399 8.04303,-10.328559 13.71982,-13.105953 10.88799,-5.326996 28.59074,-3.845977 43.95188,3.67703 C 731.81143,52.820274 740,64.492711 740,74.916305 c 0,5.116868 -3.62104,13.669838 -7.24757,17.118923 -3.45235,3.283417 -12.65366,8.303752 -15.21919,8.303752 -2.65046,0 -1.68215,2.45122 2.58629,6.54706 8.57019,8.22363 11.18509,20.22256 6.90077,31.66543 -2.83896,7.5825 -7.09108,12.20473 -14.65137,15.92665 -5.51112,2.71311 -7.86356,3.27144 -14.7144,3.49229 -4.48499,0.14458 -10.14862,-0.15381 -12.58584,-0.66309 z M 507.26266,142.89436 C 492.55367,139.53483 478.99712,128.09007 473.18273,114.12328 465.1413,94.806901 465.20427,70.186975 473.33426,54.877697 480.8687,40.689877 493.22823,31.86578 510,28.700167 c 31.57893,-5.960413 56.27844,9.191005 64.61833,39.638816 2.59761,9.483505 2.5945,32.422427 -0.005,39.999997 -3.03445,8.84405 -5.25295,12.54203 -11.58529,19.31133 -6.34526,6.78309 -13.858,11.39824 -23.02762,14.14609 -7.69933,2.30724 -24.91483,2.88462 -32.73734,1.09796 z m 27.12408,-19.59889 c 12.5131,-4.68175 19.628,-16.93168 19.60571,-33.755708 -0.0289,-21.794459 -8.62759,-37.713178 -22.5589,-41.763121 -7.33288,-2.131724 -17.28074,-1.459846 -23.80716,1.607934 -5.90756,2.776882 -12.96032,10.583541 -15.09648,16.710206 -3.60576,10.341607 -2.9207,26.779228 1.6221,38.920939 3.28205,8.77205 11.5728,16.87369 19.84152,19.38892 4.98476,1.5163 14.80332,0.98228 20.39321,-1.10917 z"
     id="path2987"
     inkscape:connector-curvature="0" />
</svg>
