<?xml version="1.0" encoding="UTF-8" standalone="no"?>
<svg
   xmlns:dc="http://purl.org/dc/elements/1.1/"
   xmlns:cc="http://creativecommons.org/ns#"
   xmlns:rdf="http://www.w3.org/1999/02/22-rdf-syntax-ns#"
   xmlns:svg="http://www.w3.org/2000/svg"
   xmlns="http://www.w3.org/2000/svg"
   viewBox="0 0 188.97333 188.97333"
   height="188.97333"
   width="188.97333"
   xml:space="preserve"
   id="svg2"
   version="1.1"><metadata
     id="metadata8"><rdf:RDF><cc:Work
         rdf:about=""><dc:format>image/svg+xml</dc:format><dc:type
           rdf:resource="http://purl.org/dc/dcmitype/StillImage" /></cc:Work></rdf:RDF></metadata><defs
     id="defs6" /><g
     transform="matrix(1.3333333,0,0,-1.3333333,0,188.97333)"
     id="g10"><g
       transform="scale(0.1)"
       id="g12"><path
         id="path14"
         style="fill:#d3d2d2;fill-opacity:1;fill-rule:nonzero;stroke:none"
         d="M 1417.32,0 H 0 V 1417.32 H 1417.32 V 0" /><path
         id="path16"
         style="fill:#00a650;fill-opacity:1;fill-rule:nonzero;stroke:none"
         d="M 997.148,767.773 H 1170.8 c 18.24,-51.328 28.24,-106.543 28.24,-164.132 0,-61.305 -11.34,-119.942 -31.89,-174.043 H 991.328 c 31.232,50.605 49.282,110.199 49.282,174.043 0,59.738 -15.84,115.714 -43.462,164.132 z M 376.711,603.641 c 0,59.738 15.848,115.714 43.457,164.132 H 246.516 C 228.281,716.445 218.27,661.23 218.27,603.641 c 0,-61.305 11.347,-119.942 31.906,-174.043 h 175.82 c -31.23,50.605 -49.285,110.199 -49.285,174.043" /><path
         id="path18"
         style="fill:#ed1c24;fill-opacity:1;fill-rule:nonzero;stroke:none"
         d="m 708.66,113.254 c 209.504,0 388.25,131.441 458.49,316.344 H 991.328 C 932.871,334.852 828.145,271.688 708.66,271.688 c -119.488,0 -224.207,63.164 -282.664,157.91 H 250.176 C 320.41,244.695 499.148,113.254 708.66,113.254" /><path
         id="path20"
         style="fill:#ffffff;fill-opacity:1;fill-rule:nonzero;stroke:none"
         d="m 708.66,935.602 c 123.606,0 231.36,-67.614 288.488,-167.829 H 1170.8 c -67.52,190.102 -248.905,326.267 -462.14,326.267 -213.238,0 -394.629,-136.165 -462.144,-326.267 h 173.652 c 57.137,100.215 164.883,167.829 288.492,167.829" /><path
         id="path22"
         style="fill:#2e3192;fill-opacity:1;fill-rule:nonzero;stroke:none"
         d="m 435.281,618.113 h 125.09 v 685.957 h -125.09 v -93.74 H 332.18 v 93.74 H 207.09 V 777.539 c 24.883,80 68.43,151.781 125.515,210.258 v 95.143 h 102.676 z m 252.91,13.028 133.625,-133.653 -0.019,-0.058 c -27.715,-31.485 -68.32,-51.367 -113.555,-51.367 -77.273,0 -138.84,58.007 -147.871,132.832 H 441.836 l -6.707,0.117 c 6.187,-146.035 125.496,-262.559 273.062,-262.559 128.059,0 235.247,86.231 265.5,204.887 L 776.094,720.117 Z m 564.269,345.07 H 1112.71 L 965.977,825.176 V 1219.71 H 840.879 V 984.141 l -38.359,-0.02 -222.364,-0.117 0.059,-118.066 125.273,0.085 -125.351,-126.835 71.133,-71.122 189.609,192.332 v -153.66 h 0.137 L 1244.79,299.402 v 176.582 l -234.65,236.387 242.32,263.84" /></g></g></svg>